<svg width="19" height="19" viewBox="0 0 19 19" fill="none" xmlns="http://www.w3.org/2000/svg">
<path d="M12.9141 2.13281C13.9625 2.13281 14.968 2.5493 15.7093 3.29066C16.4507 4.03201 16.8672 5.0375 16.8672 6.08594V12.9141C16.8672 13.9625 16.4507 14.968 15.7093 15.7093C14.968 16.4507 13.9625 16.8672 12.9141 16.8672H6.08594C5.0375 16.8672 4.03201 16.4507 3.29066 15.7093C2.5493 14.968 2.13281 13.9625 2.13281 12.9141V6.08594C2.13281 5.0375 2.5493 4.03201 3.29066 3.29066C4.03201 2.5493 5.0375 2.13281 6.08594 2.13281H12.9141ZM12.9141 0.695312H6.08594C4.65757 0.699578 3.28892 1.26889 2.2789 2.2789C1.26889 3.28892 0.699578 4.65757 0.695312 6.08594V12.9141C0.699578 14.3424 1.26889 15.7111 2.2789 16.7211C3.28892 17.7311 4.65757 18.3004 6.08594 18.3047H12.9141C14.3424 18.3004 15.7111 17.7311 16.7211 16.7211C17.7311 15.7111 18.3004 14.3424 18.3047 12.9141V6.08594C18.3004 4.65757 17.7311 3.28892 16.7211 2.2789C15.7111 1.26889 14.3424 0.699578 12.9141 0.695312Z" fill="#312E38"/>
</svg>
