<svg width="24" height="19" viewBox="0 0 24 19" fill="none" xmlns="http://www.w3.org/2000/svg">
<path d="M16.3013 2.74875C16.7941 2.75552 17.2805 2.86143 17.7315 3.06019C18.1825 3.25894 18.5888 3.54647 18.9263 3.90563C18.9263 3.90563 20.3588 3.62438 21.1501 3.0675C21.1501 3.0675 20.9513 4.17 19.6332 5.01375H19.6444C19.7457 5.01375 20.4844 4.995 21.6469 4.45125C21.6469 4.45125 21.4238 5.08688 19.9032 6.29625C19.9951 9.1575 18.5794 14.4469 13.3407 16.3294C12.1901 16.7503 10.9752 16.9679 9.75005 16.9725C7.78725 16.9814 5.86464 16.4164 4.2188 15.3469C4.50005 15.375 4.75317 15.375 5.0063 15.375C8.1038 15.375 9.6038 13.785 9.5213 13.785H9.40692C6.78192 13.785 6.14255 11.2725 6.14255 11.2725C6.35279 11.3996 6.5967 11.4598 6.84193 11.445C7.15889 11.4384 7.4738 11.3924 7.77943 11.3081C4.81693 10.6069 4.92755 7.76437 4.92755 7.76437C5.32789 8.03156 5.79633 8.1786 6.27755 8.18812C6.3567 8.18901 6.43578 8.18274 6.5138 8.16937C3.80817 6.02812 5.43755 3.4725 5.43755 3.4725C8.4863 7.01062 12.2344 7.13625 12.7501 7.13625H12.8119C12.5344 5.475 13.2188 3.87938 15.0619 3.01125C15.4464 2.83468 15.8651 2.74506 16.2882 2.74875M22.8751 0.375L20.4507 2.0775C20.0804 2.29945 19.68 2.4668 19.2619 2.57437C18.4134 1.91176 17.3704 1.54675 16.2938 1.53563C15.692 1.53005 15.0964 1.65813 14.55 1.91063C12.8288 2.71875 11.7825 4.11375 11.5744 5.78813C9.53672 5.36786 7.70065 4.27177 6.3638 2.6775L5.29505 1.43813L4.4138 2.8125C3.84568 3.74839 3.62033 4.85258 3.7763 5.93625L3.70692 7.72312C3.69135 8.85745 4.06825 9.9623 4.7738 10.8506L4.9613 11.5819C5.23023 12.5262 5.77626 13.3681 6.5288 13.9988C6.02813 14.1083 5.51693 14.1624 5.00442 14.16C4.7813 14.16 4.55067 14.1506 4.31817 14.1319L0.0187988 13.7738L3.49692 16.3294C5.35304 17.5506 7.52824 18.1969 9.75005 18.1875C11.1175 18.1838 12.4739 17.9427 13.7588 17.475C16.3365 16.5551 18.4636 14.6823 19.7026 12.2419C20.5596 10.5753 21.0439 8.74236 21.1219 6.87C22.3651 5.79937 22.7063 5.11688 22.7982 4.85625L23.7582 2.12437L22.4457 2.73563L22.8751 0.375Z" fill="#312E38"/>
</svg>
